<svg width="300" height="300" viewBox="0 0 300 300" fill="none" xmlns="http://www.w3.org/2000/svg">
<rect x="73" y="100" width="137" height="130" fill="#578780"/>
<rect x="52" y="43" width="178" height="16" fill="#373434"/>
<path d="M65 51H217V205C217 222.673 202.673 237 185 237H97C79.3269 237 65 222.673 65 205V51Z" stroke="#373434" stroke-width="16"/>
<path d="M218.5 108.29C222.915 108.593 227.309 109.164 231.442 110.137C238.443 111.786 244.018 114.428 247.795 118.205C256.89 127.301 262 139.637 262 152.5C262 165.363 256.89 177.699 247.795 186.795C243.903 190.687 238.185 193.558 231.182 195.428C227.11 196.515 222.798 197.211 218.5 197.602L218.5 153.5L218.5 108.29Z" stroke="#373434" stroke-width="18"/>
<path fill-rule="evenodd" clip-rule="evenodd" d="M86 154H180V173H152V183H178V192H162V202H195V210H162H85V202V190H86V183V173V171V154Z" fill="#D9D9D9"/>
<path fill-rule="evenodd" clip-rule="evenodd" d="M196.782 243.421C196.782 239.875 193.907 237 190.361 237H88.7342C85.1271 237 82.203 239.924 82.203 243.531V243.531C82.203 246.978 79.5199 249.826 76.0831 250.082C55.2017 251.641 42 253.938 42 256.5C42 261.194 86.3238 265 141 265C195.676 265 240 261.194 240 256.5C240 253.814 225.49 251.419 202.832 249.861C199.44 249.628 196.782 246.821 196.782 243.421V243.421Z" fill="#373434"/>
<path d="M196.5 153.5H179M196.5 210.5H119.5M96.5 153.5H85V210.5H96.5M96.5 153.5V210.5M96.5 153.5H108M96.5 210.5H108M108 210.5V153.5M108 210.5H119.5M108 153.5H119.5M119.5 153.5V163.25M119.5 153.5H171M119.5 210.5V201.25M119.5 182.5V192M119.5 182.5V173M119.5 182.5H128M196.5 182.5H179M196.5 192H179M119.5 192V201.25M119.5 192H128M119.5 173V163.25M119.5 173H143.5M196.5 173H179M119.5 163.25H171M196.5 163.25H179M119.5 201.25H136M196.5 201.25H164M171 153.5V163.25M171 153.5H179M171 163.25V173M171 163.25H179M171 173H179M171 173H152M179 153.5V163.25M179 163.25V173M163 182.5V192M163 182.5H171M163 182.5H152M163 192H143.5M163 192H164M171 192V182.5M171 192H179M171 192H164M171 182.5H179M179 182.5V192M143.5 173V182.5M143.5 173H152M143.5 182.5H152M143.5 182.5H128M152 182.5V173M128 182.5V192M128 192H136M136 192V201.25M136 192H143.5M136 201.25H143.5M143.5 192V201.25M143.5 201.25H164M164 192V201.25" stroke="#363434" stroke-width="4"/>
<path fill-rule="evenodd" clip-rule="evenodd" d="M169 112.5L178 103V109.5L170 117.5L169 118.5V112.5ZM169 122V126H152V147H186V126H173V124.5L181 116.5V110L169 122Z" fill="#363434"/>
<rect x="156" y="137" width="25" height="10" fill="#D1D4D2"/>
</svg>
